<svg width="320" height="320" viewBox="0 0 320 320" fill="none" xmlns="http://www.w3.org/2000/svg">
<rect width="320" height="320" rx="5" fill="#1E293B"/>
<mask id="path-2-outside-1_1652_1304" maskUnits="userSpaceOnUse" x="49" y="87" width="242" height="141" fill="black">
<rect fill="white" x="49" y="87" width="242" height="141"/>
<path d="M50.8086 88.9141H94.5586V198.875H141.434V227H50.8086V88.9141ZM206.863 168.602V227H163.113V88.9141H206.863V149.754L238.113 88.9141H289.188L249.637 155.125L289.188 227H238.113L209.988 161.961L206.863 168.602Z"/>
</mask>
<path d="M50.8086 88.9141H94.5586V198.875H141.434V227H50.8086V88.9141ZM206.863 168.602V227H163.113V88.9141H206.863V149.754L238.113 88.9141H289.188L249.637 155.125L289.188 227H238.113L209.988 161.961L206.863 168.602Z" fill="#B88DE2"/>
<path d="M50.8086 88.9141V87.9141H49.8086V88.9141H50.8086ZM94.5586 88.9141H95.5586V87.9141H94.5586V88.9141ZM94.5586 198.875H93.5586V199.875H94.5586V198.875ZM141.434 198.875H142.434V197.875H141.434V198.875ZM141.434 227V228H142.434V227H141.434ZM50.8086 227H49.8086V228H50.8086V227ZM50.8086 89.9141H94.5586V87.9141H50.8086V89.9141ZM93.5586 88.9141V198.875H95.5586V88.9141H93.5586ZM94.5586 199.875H141.434V197.875H94.5586V199.875ZM140.434 198.875V227H142.434V198.875H140.434ZM141.434 226H50.8086V228H141.434V226ZM51.8086 227V88.9141H49.8086V227H51.8086ZM206.863 168.602L205.958 168.176L205.863 168.378V168.602H206.863ZM206.863 227V228H207.863V227H206.863ZM163.113 227H162.113V228H163.113V227ZM163.113 88.9141V87.9141H162.113V88.9141H163.113ZM206.863 88.9141H207.863V87.9141H206.863V88.9141ZM206.863 149.754H205.863L207.753 150.211L206.863 149.754ZM238.113 88.9141V87.9141H237.503L237.224 88.4572L238.113 88.9141ZM289.188 88.9141L290.046 89.4269L290.95 87.9141H289.188V88.9141ZM249.637 155.125L248.778 154.612L248.484 155.105L248.761 155.607L249.637 155.125ZM289.188 227V228H290.879L290.064 226.518L289.188 227ZM238.113 227L237.195 227.397L237.456 228H238.113V227ZM209.988 161.961L210.906 161.564L210.027 159.531L209.083 161.535L209.988 161.961ZM205.863 168.602V227H207.863V168.602H205.863ZM206.863 226H163.113V228H206.863V226ZM164.113 227V88.9141H162.113V227H164.113ZM163.113 89.9141H206.863V87.9141H163.113V89.9141ZM205.863 88.9141V149.754H207.863V88.9141H205.863ZM207.753 150.211L239.003 89.371L237.224 88.4572L205.974 149.297L207.753 150.211ZM238.113 89.9141H289.188V87.9141H238.113V89.9141ZM288.329 88.4012L248.778 154.612L250.495 155.638L290.046 89.4269L288.329 88.4012ZM248.761 155.607L288.311 227.482L290.064 226.518L250.513 154.643L248.761 155.607ZM289.188 226H238.113V228H289.188V226ZM239.031 226.603L210.906 161.564L209.07 162.358L237.195 227.397L239.031 226.603ZM209.083 161.535L205.958 168.176L207.768 169.027L210.893 162.387L209.083 161.535Z" fill="black" mask="url(#path-2-outside-1_1652_1304)"/>
</svg>
