<svg width="360" height="360" viewBox="0 0 360 360" fill="none" xmlns="http://www.w3.org/2000/svg">
<rect width="360" height="360" rx="30" fill="url(#paint0_linear_7_27)"/>
<path d="M63.025 273C60.6083 273 59.4 271.792 59.4 269.375V83.34C59.4 80.9233 60.6083 79.715 63.025 79.715H104.06C106.477 79.715 107.685 80.9233 107.685 83.34V234.285H144.225C146.642 234.285 147.85 235.493 147.85 237.91V269.375C147.85 271.792 146.642 273 144.225 273H63.025ZM174.607 273C172.19 273 170.982 271.792 170.982 269.375V83.34C170.982 80.9233 172.19 79.715 174.607 79.715H215.642C218.059 79.715 219.267 80.9233 219.267 83.34V160.19H237.247L246.817 124.085L255.517 81.6C255.71 81.02 256.145 80.585 256.822 80.295C257.595 79.9083 258.707 79.715 260.157 79.715H301.917C304.334 79.715 305.542 80.9233 305.542 83.34V101.465C305.542 102.528 305.397 103.592 305.107 104.655C304.817 105.622 304.575 106.492 304.382 107.265L286.692 149.75L274.367 172.95L286.982 195.86L308.297 244.29C308.684 244.967 308.974 245.692 309.167 246.465C309.36 247.238 309.457 248.35 309.457 249.8V269.375C309.457 271.792 308.249 273 305.832 273H262.622C261.945 273 261.075 272.903 260.012 272.71C259.045 272.42 258.465 271.792 258.272 270.825L247.542 224.86L239.567 198.615H219.267V269.375C219.267 271.792 218.059 273 215.642 273H174.607Z" fill="#EEF3FF"/>
<defs>
<linearGradient id="paint0_linear_7_27" x1="180" y1="0" x2="180" y2="360" gradientUnits="userSpaceOnUse">
<stop stop-color="#002160"/>
<stop offset="1" stop-color="#0044C6"/>
</linearGradient>
</defs>
</svg>
